<svg xmlns="http://www.w3.org/2000/svg" version="1.1" xmlns:xlink="http://www.w3.org/1999/xlink" xmlns:svgjs="http://svgjs.com/svgjs" width="1440" height="560" preserveAspectRatio="none" viewBox="0 0 1440 560"><g mask="url(&quot;#SvgjsMask1002&quot;)" fill="none"><path d="M381.54 631.93C570.84 613.4 670.83 222.73 1015.58 211.43 1360.33 200.13 1488.15 88.8 1649.62 88.23" stroke="rgba(255, 0, 0, 0.58)" stroke-width="2"></path><path d="M809.94 571.7C927.53 513.47 875.3 131.25 1093.49 130 1311.69 128.75 1506.11 371.15 1660.6 376.4" stroke="rgba(255, 0, 0, 0.58)" stroke-width="2"></path><path d="M411.68 568.87C535.43 561.16 624.92 330.69 846.3 329.91 1067.67 329.13 1063.6 399.91 1280.91 399.91 1498.22 399.91 1605.48 330.13 1715.53 329.91" stroke="rgba(255, 0, 0, 0.58)" stroke-width="2"></path><path d="M512.43 650.73C658.83 641.64 766.73 368.74 1026.74 368.32 1286.75 367.9 1408.51 496.15 1541.05 497.12" stroke="rgba(255, 0, 0, 0.58)" stroke-width="2"></path><path d="M343.76 607.76C514.16 593.01 609.31 252.8 922.74 243.3 1236.17 233.8 1354.02 126.29 1501.72 125.7" stroke="rgba(255, 0, 0, 0.58)" stroke-width="2"></path></g><defs><mask id="SvgjsMask1002"><rect width="1440" height="560" fill="#ffffff"></rect></mask></defs></svg>